<?xml version="1.0" encoding="utf-8" ?>
<svg baseProfile="tiny" height="256px" version="1.2" width="256px" xmlns="http://www.w3.org/2000/svg" xmlns:ev="http://www.w3.org/2001/xml-events" xmlns:xlink="http://www.w3.org/1999/xlink"><defs><linearGradient id="bgGradient" x1="0%" x2="0%" y1="0%" y2="100%"><stop offset="0.0" stop-color="rgb(59,201,189)" /><stop offset="1.0" stop-color="rgb(107,103,214)" /></linearGradient></defs><rect fill="url(#bgGradient)" height="256px" width="256px" x="0" y="0" /><polyline fill="none" points="130,205 130,206 129,207 129,209 128,210 128,212 127,213 127,215 126,216 126,218 125,219 125,220 124,221 123,221 122,222 119,222 122,222 123,223 142,223 123,223 122,222 123,221 124,221 125,220 126,221 144,221 145,222 157,222 159,220 160,220 159,220 158,221 157,221 156,222 145,222 144,221 145,220 154,220 145,220 144,221 128,221 127,220 127,219 128,218 128,217 128,218 127,219 126,218 126,216 127,215 129,215 129,214 128,215 127,214 127,213 128,212 128,210 129,209 129,207 130,206" stroke="black" stroke-width="1.5" /><polyline fill="none" points="130,200 129,201 128,201 127,202 125,202 124,203 122,203 121,204 119,204 118,205 116,205 115,206 112,206 111,207 109,207 108,208 107,208 106,209 104,209 103,210 101,210 100,211 99,211 100,211 101,210 103,210 104,209 106,209 107,210 106,211 105,211 104,212 102,212 104,212 105,211 107,211 108,210 109,210 110,209 112,209 113,208 115,208 116,207 119,207 120,206 122,206 123,205 125,205 126,204 128,204 129,203 128,204 126,204 125,205 123,205 122,206 119,206 118,205 119,204 121,204 122,203 124,203 125,202 127,202 128,201 130,201 131,202 132,202 133,203 132,204 132,207 131,208 131,210 130,211 130,212 130,211 131,210 131,208 132,207 132,204 133,203 134,203 137,206 138,206 142,210 143,210 150,217 151,217 152,218 151,217 150,217 143,210 142,210 138,206 137,206 134,203 133,203 132,202 131,202 130,201" stroke="black" stroke-width="1.5" /><polyline fill="none" points="104,165 104,167 103,168 103,170 102,171 102,173 104,173 104,172 103,173 102,172 102,171 103,170 105,170 105,169 104,170 103,169 103,168 104,167 106,167 106,166 105,165" stroke="black" stroke-width="1.5" /><polyline fill="none" points="191,164 191,165" stroke="black" stroke-width="1.5" /><polyline fill="none" points="189,164 189,166 190,167 190,170 191,171 191,174 192,175 192,180 193,181 193,185 193,181 192,180 192,175 193,174 194,175 194,179 194,175 193,174 193,171 192,170 192,167 192,170 191,171 190,170 190,167 189,166" stroke="black" stroke-width="1.5" /><polyline fill="none" points="106,159 106,160 107,159 108,160 108,161 107,162 105,162 105,163 106,162 107,163 107,164 107,162 108,161 108,159" stroke="black" stroke-width="1.5" /><polyline fill="none" points="176,157 176,159 178,159 179,160 179,161 178,162 177,161 177,163 178,164 178,166 180,166 181,167 181,168 180,169 179,168 179,169 181,169 181,167 180,166 180,164 178,164 177,163 178,162 179,162 179,160 178,159 178,157" stroke="black" stroke-width="1.5" /><polyline fill="none" points="107,156 107,157 108,156 109,157 109,156" stroke="black" stroke-width="1.5" /><polyline fill="none" points="106,152 107,152 108,153 108,154 110,154 109,154 108,153 108,152" stroke="black" stroke-width="1.5" /><polyline fill="none" points="184,151 185,152 185,153 188,156 188,157 189,158 189,160 190,161 190,162 190,161 189,160 189,157 185,153 185,152" stroke="black" stroke-width="1.5" /><polyline fill="none" points="182,148 183,149" stroke="black" stroke-width="1.5" /><polyline fill="none" points="165,148 165,151 167,151 167,148" stroke="black" stroke-width="1.5" /><polyline fill="none" points="173,147 173,149 174,150 174,152 176,152 177,153 177,154 176,155 175,154 175,155 177,155 177,153 176,152 176,150 174,150 173,149" stroke="black" stroke-width="1.5" /><polyline fill="none" points="179,143 180,144 180,145 181,146 180,145 180,144" stroke="black" stroke-width="1.5" /><polyline fill="none" points="177,140 178,141" stroke="black" stroke-width="1.5" /><polyline fill="none" points="171,140 171,142 172,143 172,145 174,145 175,146 175,148 175,146 174,145 174,143 174,144 173,145 172,144 172,143 171,142" stroke="black" stroke-width="1.5" /><polyline fill="none" points="175,137 176,138" stroke="black" stroke-width="1.5" /><polyline fill="none" points="170,137 170,138 169,139 168,138 167,138 167,141 168,142 167,143 166,143 166,146 168,146 168,142 169,141 169,139 170,138" stroke="black" stroke-width="1.5" /><polyline fill="none" points="95,134 97,134" stroke="black" stroke-width="1.5" /><polyline fill="none" points="90,133 93,133" stroke="black" stroke-width="1.5" /><polyline fill="none" points="132,132 132,133 133,132" stroke="black" stroke-width="1.5" /><polyline fill="none" points="85,132 88,132" stroke="black" stroke-width="1.5" /><polyline fill="none" points="80,131 83,131" stroke="black" stroke-width="1.5" /><polyline fill="none" points="155,130 155,131 156,132 156,136 155,137 154,136 154,133 154,136 155,137 155,142 156,143 156,150 157,151 157,158 158,159 158,166 159,167 159,171 159,170 160,169 161,170 161,169 162,168 162,166 163,165 164,166 164,169 163,170 163,174 163,170 164,169 164,164 165,163 165,158 166,157 166,153 164,153 164,156 165,157 165,158 164,159 163,159 163,163 162,164 162,168 161,169 160,169 159,168 159,167 160,166 160,158 159,157 159,150 158,149 158,143 157,142 157,137 156,136 156,132 155,131 156,130 159,130" stroke="black" stroke-width="1.5" /><polyline fill="none" points="41,128 41,129" stroke="black" stroke-width="1.5" /><polyline fill="none" points="42,125 42,126" stroke="black" stroke-width="1.5" /><polyline fill="none" points="113,123 113,124 109,128 109,129 104,134 105,133 106,134 105,133 109,129 109,128 114,123 115,124 117,124 118,125 121,125 122,126 125,126 126,127 128,127 126,127 125,126 122,126 121,125 118,125 117,124 115,124 114,123" stroke="black" stroke-width="1.5" /><polyline fill="none" points="88,118 88,119 89,119 91,121" stroke="black" stroke-width="1.5" /><polyline fill="none" points="154,115 150,119 149,119 146,122 145,122 143,124 142,124 140,126 141,126 144,123 145,123 148,120 149,120 153,116 154,116" stroke="black" stroke-width="1.5" /><polyline fill="none" points="48,107 48,109 47,110 47,111 47,110 48,109" stroke="black" stroke-width="1.5" /><polyline fill="none" points="156,104 152,108 152,109 151,110 150,110 150,111 145,116 145,117 141,121 140,120 139,121 139,122 139,121 140,120 141,121 141,122 141,121 148,114 148,113 153,108 153,107" stroke="black" stroke-width="1.5" /><polyline fill="none" points="135,104 133,106 132,106 129,109 128,109 125,112 124,112 122,114 121,114 118,117 117,117 118,117 119,118 116,121 116,122 118,122 119,123 122,123 123,124 126,124 127,125 129,125 130,126 132,126 130,126 129,125 127,125 126,124 123,124 122,123 119,123 118,122 117,122 116,121 117,120 118,120 121,117 122,117 125,114 126,114 129,111 130,111 132,109 133,109 136,106 133,109 132,109 131,108" stroke="black" stroke-width="1.5" /><polyline fill="none" points="49,104 49,105" stroke="black" stroke-width="1.5" /><polyline fill="none" points="172,103 170,105 169,105 167,107 166,107 164,109 163,109 161,111 159,111 159,112 160,113 160,114 162,116 162,117 163,118 162,117 162,116 161,115 161,114 159,112 160,111 161,111 162,110 163,110 164,109 165,109 167,107 168,107 170,105 171,105 173,103" stroke="black" stroke-width="1.5" /><polyline fill="none" points="154,103 151,106" stroke="black" stroke-width="1.5" /><polyline fill="none" points="156,102 157,102" stroke="black" stroke-width="1.5" /><polyline fill="none" points="50,101 50,102" stroke="black" stroke-width="1.5" /><polyline fill="none" points="168,98 168,99 167,100 165,100 164,99 163,100 167,100 168,101 167,102 166,102 162,106 163,105 165,105 165,104 168,101 169,101 170,100 169,101 168,101 167,100 168,99" stroke="black" stroke-width="1.5" /><polyline fill="none" points="161,98 159,100 157,100 158,100 159,101 159,103 158,104 158,109 155,112 154,112 150,116 149,116 145,120 148,117 149,117 153,113 154,113 155,112 156,112 157,113 156,112 157,111 157,110 158,109 158,104 159,103 159,100 160,99 161,100 161,104 160,105 160,109 160,105 161,104 161,99 162,98" stroke="black" stroke-width="1.5" /><polyline fill="none" points="111,97 110,98 109,98 108,99 109,98 110,98" stroke="black" stroke-width="1.5" /><polyline fill="none" points="174,96 173,97 171,97 174,97 175,98 174,99 173,99 172,100 173,99 174,99 175,98 174,97 175,96" stroke="black" stroke-width="1.5" /><polyline fill="none" points="168,96 169,96" stroke="black" stroke-width="1.5" /><polyline fill="none" points="123,96 124,96" stroke="black" stroke-width="1.5" /><polyline fill="none" points="171,95 172,95" stroke="black" stroke-width="1.5" /><polyline fill="none" points="149,95 149,100 148,101 144,101 143,100 147,96 146,96 141,101 142,101 143,100 144,101 149,101" stroke="black" stroke-width="1.5" /><polyline fill="none" points="174,94 176,94 177,95 176,94" stroke="black" stroke-width="1.5" /><polyline fill="none" points="178,93 179,93" stroke="black" stroke-width="1.5" /><polyline fill="none" points="140,93 139,94 139,95 138,96 138,97 137,98 137,99 138,98 139,99 138,98 138,96 139,95 139,94" stroke="black" stroke-width="1.5" /><polyline fill="none" points="186,91 184,93 184,94 182,96 181,95 181,93 181,95 179,97 179,99 180,100 180,101 179,102 178,101 177,102 176,101 175,101 176,101 177,102 177,103 176,104 176,105 175,106 175,108 174,109 174,110 173,111 173,113 172,114 172,116 171,117 171,120 170,121 170,124 169,125 169,128 167,130 168,131 168,133 169,134 169,135 170,135 168,133 168,131 167,130 169,128 169,125 170,124 171,125 171,129 170,130 170,131 171,132 171,133 173,135 174,135 170,131 170,130 171,129 171,125 172,124 172,121 173,120 173,117 174,116 174,114 175,113 175,112 177,110 177,107 178,106 178,105 179,104 179,102 180,101 180,100 182,98 182,97 183,96 183,95 184,94 184,93 186,91 187,91" stroke="black" stroke-width="1.5" /><polyline fill="none" points="189,90 190,90" stroke="black" stroke-width="1.5" /><polyline fill="none" points="144,90 142,92 141,91 142,92 142,93 143,92 143,91 144,90 145,91 145,92 146,92 147,93 148,92 149,93 150,92 151,93 151,102 150,103 143,103 142,104 139,104 139,111 138,112 138,118 137,119 137,122 137,119 138,118 138,112 139,111 139,105 140,104 142,104 143,103 147,103 148,104 146,106 146,107 145,108 145,109 144,110 144,111 143,112 143,113 142,114 142,115 141,116 141,118 141,116 143,114 143,113 144,112 144,110 145,109 145,108 146,107 146,106 148,104 149,105 149,106 148,107 149,106 149,105 148,104 149,103 150,103 151,102 152,102 151,101 153,99 154,99 155,100 154,101 155,100 155,99 156,98 158,98 158,97 157,98 156,98 155,99 153,99 152,100 151,99 151,93 150,92 149,93 148,92 147,93 146,92 146,91 145,90" stroke="black" stroke-width="1.5" /><polyline fill="none" points="192,89 193,89" stroke="black" stroke-width="1.5" /><polyline fill="none" points="55,88 55,89 54,90 55,89" stroke="black" stroke-width="1.5" /><polyline fill="none" points="198,87 197,88 195,88 197,88" stroke="black" stroke-width="1.5" /><polyline fill="none" points="200,86 201,86" stroke="black" stroke-width="1.5" /><polyline fill="none" points="160,86 159,87 153,87 150,90 151,90 152,91 151,90 154,87 159,87 160,86 163,86" stroke="black" stroke-width="1.5" /><polyline fill="none" points="165,85 167,85" stroke="black" stroke-width="1.5" /><polyline fill="none" points="59,84 59,85 60,86 60,88 61,89 61,91 60,92 59,91 59,90 58,89 58,87 57,86 57,85 57,86 58,87 58,89 59,90 59,91 60,92 60,94 61,95 61,96 62,97 50,109 58,101 59,101 59,100 60,99 61,100 61,101 61,98 62,97 61,96 61,95 60,94 60,92 61,91 62,92 62,93 62,92 61,91 61,89 60,88 60,86 59,85" stroke="black" stroke-width="1.5" /><polyline fill="none" points="177,82 178,82" stroke="black" stroke-width="1.5" /><polyline fill="none" points="133,80 133,83 132,84 130,84 129,85 128,85 127,86 125,86 124,87 123,87 124,87 125,86 127,86 128,85 129,85 130,84 132,84 133,83 134,83 133,82 133,81 134,80" stroke="black" stroke-width="1.5" /><polyline fill="none" points="73,80 72,81" stroke="black" stroke-width="1.5" /><polyline fill="none" points="226,75 227,75" stroke="black" stroke-width="1.5" /><polyline fill="none" points="62,75 61,76" stroke="black" stroke-width="1.5" /><polyline fill="none" points="172,72 174,72 175,73 176,73 175,73 174,72" stroke="black" stroke-width="1.5" /><polyline fill="none" points="111,72 111,74 110,75 110,82 111,82 112,83 111,84 111,86 115,90 116,90 117,91 119,91 120,92 120,93 116,97 117,97 118,96 119,97 121,97 122,98 125,98 126,99 129,99 130,100 132,100 133,101 135,101 137,103 137,102 136,101 133,101 132,100 133,99 135,99 133,99 132,98 130,98 129,97 126,97 125,98 122,98 121,97 119,97 118,96 118,95 120,93 123,93 124,94 125,94 126,93 131,93 132,92 134,92 135,91 136,91 137,90 138,90 139,89 141,89 139,89 138,90 137,90 136,91 134,91 133,92 132,92 131,93 126,93 125,94 124,94 123,93 121,93 120,92 122,90 126,90 127,89 129,89 130,88 132,88 134,86 136,86 137,87 139,87 137,87 136,86 133,86 131,88 130,88 129,89 127,89 126,90 121,90 120,89 119,89 116,86 116,85 113,82 113,79 112,78 112,75 111,74" stroke="black" stroke-width="1.5" /><polyline fill="none" points="64,72 63,73" stroke="black" stroke-width="1.5" /><polyline fill="none" points="181,71 181,72 182,71 185,71 187,73 186,74 184,74 183,75 179,75 178,74 176,76 175,76 174,77 173,77 172,78 171,78 170,79 169,79 168,80 167,80 166,81 165,81 164,82 163,82 162,83 159,83 158,84 157,84 157,85 158,84 159,84 160,83 162,83 163,84 162,83 163,82 164,82 165,83 167,83 165,83 164,82 165,81 166,81 167,80 168,80 169,79 170,79 171,78 172,78 173,77 174,77 175,76 177,76 178,75 183,75 184,74 187,74 187,72 186,72 185,71" stroke="black" stroke-width="1.5" /><polyline fill="none" points="126,70 125,71 125,75 126,76 130,76 131,75 131,71 127,71" stroke="black" stroke-width="1.5" /><polyline fill="none" points="119,68 119,69 118,70 117,70 115,72 116,73 116,77 115,78 115,80 119,84 119,85 120,86 120,87 120,86 119,85 119,83 117,81 116,81 115,80 115,78 116,77 116,73 115,72 117,70 119,70 121,68 122,68 123,69 124,69 123,69 122,68 121,68 120,69" stroke="black" stroke-width="1.5" /><polyline fill="none" points="68,66 67,67" stroke="black" stroke-width="1.5" /><polyline fill="none" points="217,64 220,64 221,65 220,66 216,66 215,65 182,65 180,67 180,69 179,70 179,72 179,70 180,69 180,68 183,65 215,65 216,66 220,66 221,67 223,67 224,68 225,68 226,69 225,70 221,70 220,71 214,71 213,72 207,72 206,73 203,73 202,74 199,74 198,75 193,75 192,76 189,76 188,77 186,77 185,78 182,78 181,79 179,79 178,80 176,80 175,81 172,81 171,82 169,82 172,82 173,83 172,84 169,84 172,84 174,86 173,87 172,87 171,86 171,87 170,88 168,88 167,87 165,87 167,87 168,88 167,89 165,89 164,90 161,90 160,89 161,88 163,88 161,88 160,89 157,89 156,90 154,90 156,90 157,89 160,89 161,90 160,91 158,91 157,92 155,92 154,93 155,94 154,95 153,95 154,95 155,96 156,96 157,95 159,95 160,96 162,96 160,96 159,95 158,95 157,94 155,94 154,93 155,92 157,92 158,91 160,91 161,90 164,90 165,89 167,89 168,88 170,88 171,87 173,87 174,86 175,86 176,85 178,85 179,84 180,84 180,83 179,84 178,84 177,85 176,85 175,86 174,86 172,84 173,83 175,83 173,83 172,82 173,81 175,81 176,80 178,80 179,79 181,79 182,78 185,78 186,79 185,80 183,80 182,81 180,81 182,81 183,80 185,80 186,79 190,79 191,78 194,78 195,77 198,77 199,76 202,76 203,75 207,75 208,74 213,74 214,73 220,73 221,72 224,72 225,73 224,74 223,74 222,75 221,75 220,76 218,76 217,77 216,77 215,78 214,78 213,79 212,79 211,80 209,80 208,81 207,81 206,82 204,82 203,83 202,83 201,84 199,84 198,85 197,85 196,86 194,86 193,87 191,87 190,88 188,88 187,89 185,89 184,90 179,90 178,91 177,91 176,92 173,92 172,93 170,93 169,94 167,94 166,95 164,95 166,95 167,94 169,94 170,93 172,93 173,92 176,92 177,91 179,91 180,90 184,90 185,89 187,89 188,88 190,88 191,87 193,87 194,86 196,86 197,85 198,85 199,84 201,84 202,83 203,83 204,82 206,82 207,81 208,81 209,82 207,84 205,84 207,84 209,82 211,82 209,82 208,81 209,80 211,80 212,79 213,79 214,78 215,78 216,79 215,80 216,79 218,79 216,79 215,78 216,77 217,77 218,76 220,76 221,75 222,75 223,74 224,74 225,73 227,73 225,73 224,72 221,72 220,71 221,70 225,70 226,69 228,69 229,70 228,71 229,71 231,69 233,71 231,73 230,73 229,74 230,73 231,73 232,72 233,72 233,70 232,70 231,69 230,69 229,68 228,69 226,69 225,68 224,68 223,67 221,67 220,66 221,65 224,65 225,66 224,65 221,65 220,64" stroke="black" stroke-width="1.5" /><polyline fill="none" points="208,63 215,63" stroke="black" stroke-width="1.5" /><polyline fill="none" points="114,61 112,63 111,63 110,64 109,64 108,65 107,65 106,66 105,66 102,69 103,68 104,68 106,66 107,66 109,64 110,64 111,63 112,63 113,62 114,62 115,61 128,61 129,62 131,62 132,63 130,65 129,64 124,64 123,65 119,65 118,66 117,66 113,70 104,70 114,70 119,65 123,65 124,64 129,64 131,66 129,68 128,67 127,68 128,67 129,68 131,66 132,67 133,67 137,71 135,73 134,73 135,73 136,74 136,80 139,80 140,81 139,82 136,82 136,84 136,83 137,82 139,82 140,81 142,81 143,82 143,85 142,86 143,85 143,81 140,81 139,80 140,79 141,79 142,78 142,77 143,76 143,70 142,69 142,67 141,67 140,66 138,66 137,65 135,65 133,63 132,63 131,62 129,62 128,61" stroke="black" stroke-width="1.5" /><polyline fill="none" points="165,52 168,55" stroke="black" stroke-width="1.5" /><polyline fill="none" points="161,49 162,50" stroke="black" stroke-width="1.5" /><polyline fill="none" points="136,48 136,50 135,51 135,52 136,53 135,54 135,56 134,57 134,59 133,60 134,59 134,57 135,56 135,54 136,53 148,65 135,52 135,51 136,50 151,65 151,66 150,67 147,67 146,66 144,66 146,66 147,67 149,67 150,68 149,69 147,69 151,69 150,68 151,67 152,67 153,68 158,68 159,69 163,69 166,72 165,73 164,73 163,72 161,72 160,71 159,71 160,71 161,72 160,73 157,73 156,74 155,74 154,75 153,75 154,75 155,74 157,74 158,75 157,76 156,76 155,77 153,77 152,78 150,78 149,79 147,79 146,78 147,77 148,77 149,76 151,76 149,76 148,77 147,77 146,78 147,79 145,81 145,85 145,81 147,79 149,79 150,78 152,78 153,77 155,77 156,76 157,76 158,75 161,75 162,74 164,74 166,72 168,72 166,72 165,71 166,70 168,70 169,69 170,69 171,68 172,68 173,67 175,67 176,68 175,69 174,69 173,70 172,70 173,70 174,69 175,69 176,68 177,68 178,67 177,66 178,65 178,64 177,63 175,63 174,62 172,62 171,61 170,61 169,60 170,59 171,59 172,58 171,57 172,58 171,59 170,59 169,58 168,58 167,57 166,57 165,56 163,56 162,55 161,55 160,54 158,54 157,53 155,53 157,53 158,54 160,54 161,55 162,55 163,56 162,57 161,57 160,58 159,57 159,56 159,57 158,58 157,57 157,56 156,55 155,55 158,58 158,59 160,61 160,62 162,64 162,65 165,68 164,67 165,66 166,66 167,67 167,68 167,67 164,64 164,63 162,61 162,60 160,58 161,57 162,57 163,58 164,58 165,59 166,59 167,60 169,60 170,61 171,61 172,62 173,62 174,63 177,63 178,64 176,66 175,66 174,67 173,67 172,68 171,68 170,69 169,69 168,70 166,70 165,71 163,69 159,69 158,68 154,68 153,67 152,67 151,66 151,65 140,54 141,53 143,53 143,51 140,51 140,52 139,53 137,51 137,50 136,49" stroke="black" stroke-width="1.5" /><polyline fill="none" points="158,47 159,48" stroke="black" stroke-width="1.5" /><polyline fill="none" points="154,44 156,46" stroke="black" stroke-width="1.5" /><polyline fill="none" points="150,42 151,42 152,43 151,42" stroke="black" stroke-width="1.5" /><polyline fill="none" points="132,41 132,43 134,43 134,42 133,41" stroke="black" stroke-width="1.5" /><polyline fill="none" points="133,39 134,39 136,41 137,41 140,44 141,44 144,47 145,47 148,50 149,50 148,50 145,47 144,47 143,46 143,45 144,44 145,45 146,45 149,48 150,48 153,51 154,51 155,50 156,51 156,50 153,50 152,49 154,47 155,48 154,47 153,47 153,48 152,49 151,49 148,46 147,46 145,44 144,44 141,41 140,41 141,42 142,42 144,44 143,45 142,45 141,44 140,44 137,41 136,41 135,40 135,39" stroke="black" stroke-width="1.5" /><polyline fill="none" points="111,39 110,40 109,40 108,41 107,41 106,40 104,40 103,41 104,40 106,40 107,41 108,41 109,42 110,42 111,43 113,43 114,44 116,44 117,45 119,45 120,46 121,46 122,47 124,47 125,48 126,48 127,49 129,49 130,50 129,51 123,51 122,52 111,52 110,53 93,53 92,54 91,54 90,53 92,51 93,51 94,50 94,49 101,42 100,42 94,48 94,49 90,53 89,52 89,51 91,49 89,51 89,52 88,53 87,53 86,54 83,54 87,54 88,53 89,53 90,54 88,56 88,57 87,58 86,57 86,56 83,56 82,57 79,57 78,58 74,58 71,61 72,62 72,64 73,65 73,66 74,67 74,69 74,67 75,66 76,67 76,69 78,71 78,72 75,75 73,75 72,76 70,76 72,76 73,77 72,78 70,78 69,79 67,79 66,80 63,80 62,79 63,78 65,78 66,77 68,77 66,77 65,78 63,78 62,79 60,79 62,79 63,80 62,81 59,81 58,80 58,82 57,83 59,81 62,81 63,80 66,80 67,79 69,79 70,78 72,78 73,77 74,78 75,77 73,77 72,76 73,75 76,75 76,74 78,72 80,74 81,73 82,74 88,74 89,73 94,73 95,72 100,72 95,72 94,73 89,73 88,74 82,74 81,73 82,72 87,72 88,71 93,71 94,70 99,70 94,70 93,71 88,71 87,72 82,72 81,73 80,72 80,71 82,69 82,67 84,65 84,64 85,63 85,62 86,61 86,60 88,58 88,57 89,56 91,56 92,57 95,57 96,58 101,58 102,59 106,59 107,60 111,60 108,60 107,59 108,58 112,58 113,59 114,59 113,59 112,58 109,58 108,57 102,57 101,56 102,55 110,55 111,54 122,54 123,53 132,53 133,54 133,55 132,56 132,58 131,59 131,60 131,59 132,58 132,56 133,55 133,53 123,53 122,52 123,51 129,51 130,50 131,50 132,49 134,49 134,47 135,46 135,45 133,45 133,47 134,48 133,49 132,49 131,48 130,48 129,47 128,47 127,46 126,46 125,45 123,45 122,44 121,44 120,43 118,43 117,42 115,42 114,41 112,41 114,41 115,42 117,42 118,43 120,43 121,44 122,44 123,45 122,46 120,46 119,45 117,45 116,44 114,44 113,43 111,43 110,42 109,42 108,41 109,40 110,40 111,39 112,39" stroke="black" stroke-width="1.5" /><polyline fill="none" points="137,38 138,38" stroke="black" stroke-width="1.5" /><polyline fill="none" points="117,38 119,38" stroke="black" stroke-width="1.5" /><polyline fill="none" points="130,37 131,38 131,39 131,37" stroke="black" stroke-width="1.5" /><polyline fill="none" points="124,37 127,37" stroke="black" stroke-width="1.5" /><polyline fill="none" points="127,34 126,35 120,35 119,36 115,36 114,37 107,37 106,38 105,37 103,37 101,39 100,39 99,40 98,40 97,41 95,41 94,42 93,42 92,43 91,43 89,45 88,45 87,46 86,46 84,48 83,48 82,49 81,49 79,51 78,51 75,54 74,54 71,57 70,57 70,58 69,59 69,60 66,63 66,64 64,66 64,67 62,69 62,70 60,72 60,73 58,75 58,76 56,78 56,79 55,80 55,82 54,83 54,85 53,86 53,88 52,89 52,90 51,91 51,93 50,94 50,96 49,97 49,99 48,100 48,102 47,103 47,105 46,106 46,108 45,109 45,111 44,112 44,114 43,115 43,116 42,117 42,121 41,122 41,123 40,124 40,126 39,127 39,128 38,129 38,131 37,132 37,134 36,135 36,136 35,137 35,139 34,140 34,142 33,143 33,144 32,145 32,147 31,148 31,149 30,150 30,151 29,152 29,153 28,154 28,156 27,157 27,158 26,159 27,158 28,159 28,160 27,161 27,163 29,165 31,165 32,166 31,167 26,167 25,166 24,166 23,165 24,164 24,163 25,162 25,161 25,162 23,164 23,166 25,166 26,167 31,167 32,168 35,168 37,170 39,170 40,171 41,171 43,173 44,173 48,177 49,177 72,200 72,201 74,201 76,203 77,203 80,206 81,206 84,209 85,209 87,211 88,211 89,212 90,212 93,215 97,215 98,216 101,216 102,217 104,217 105,216 107,216 108,217 107,218 106,218 107,218 108,217 111,217 112,218 111,219 109,219 111,219 112,220 114,220 115,221 117,221 118,220 121,220 118,220 117,219 115,219 114,218 112,218 111,217 108,217 107,216 105,216 104,215 102,215 101,216 98,216 97,215 98,214 100,214 99,214 98,213 97,213 96,212 96,207 97,206 97,202 98,201 98,197 99,196 99,192 100,191 100,186 99,186 98,185 99,184 101,184 102,185 103,185 105,187 106,187 107,188 108,188 110,190 111,190 112,191 113,191 114,192 115,192 117,194 118,194 119,195 120,195 121,196 122,196 123,197 124,197 125,198 126,198 127,199 128,199 129,198 131,198 132,199 134,199 135,200 134,201 135,201 138,204 139,204 143,208 144,208 151,215 152,215 155,218 156,218 156,213 157,212 158,213 158,218 160,218 161,217 162,217 163,218 162,219 163,218 166,218 168,216 171,216 173,214 175,214 173,214 172,213 173,212 175,212 176,211 178,211 179,212 178,213 177,213 178,213 179,212 180,212 181,211 183,211 184,210 186,210 186,209 188,207 188,206 189,205 189,204 190,203 190,202 191,201 190,202 190,203 189,204 189,205 188,206 188,207 185,210 184,210 183,209 183,208 182,207 182,206 183,205 185,207 186,206 186,205 187,204 187,203 188,202 188,201 190,199 190,198 191,197 191,196 192,195 193,196 193,197 194,196 194,194 196,192 196,191 195,190 195,181 195,190 196,191 195,192 195,193 194,194 193,193 193,188 192,189 188,185 188,184 185,181 184,182 184,195 183,196 182,195 182,177 181,176 183,174 183,173 184,172 185,173 185,175 184,176 184,177 190,183 190,184 191,185 190,184 190,183 184,177 184,176 185,175 185,173 186,172 186,169 187,168 187,165 186,164 186,161 187,160 187,159 186,158 186,157 183,154 183,153 182,152 182,151 180,149 180,148 178,146 178,145 177,144 177,143 175,141 175,140 173,138 173,137 172,138 173,138 174,139 174,140 173,141 174,140 176,142 176,143 178,145 178,146 180,148 180,149 181,150 181,151 183,153 183,154 185,156 185,157 187,159 187,160 186,161 186,163 185,164 185,168 184,169 184,172 183,173 182,172 182,171 180,171 180,173 180,172 181,171 183,173 183,174 182,175 181,175 180,176 162,176 161,175 161,174 161,175 162,176 162,177 163,178 163,179 166,182 166,183 165,184 163,182 163,183 166,186 166,187 169,190 169,191 172,194 172,195 176,199 176,200 181,205 181,206 183,208 182,209 181,209 180,210 179,210 178,211 176,211 175,212 173,212 172,213 171,213 170,214 168,214 167,215 166,215 165,216 163,216 162,217 160,217 159,218 158,217 158,211 159,210 159,200 160,199 160,191 161,190 161,182 159,180 160,179 161,179 160,178 158,178 157,177 156,177 155,176 154,176 153,175 154,174 155,174 154,174 153,173 151,173 150,172 148,172 147,171 145,171 144,170 142,170 141,169 139,169 138,168 136,168 135,167 132,167 131,166 128,166 127,165 128,164 128,161 129,160 129,157 130,156 130,153 131,152 131,149 132,148 132,144 133,143 133,140 134,139 134,135 135,134 136,134 138,136 138,137 139,138 139,139 140,140 140,141 141,142 141,143 142,144 142,145 143,146 143,147 144,148 144,149 145,150 145,151 146,152 146,153 147,154 147,155 148,156 148,157 149,158 149,159 151,161 151,162 152,163 152,164 153,165 153,166 154,167 154,168 155,169 155,170 156,171 156,172 158,174 157,175 158,175 159,176 158,175 158,173 156,171 156,170 157,169 157,168 156,167 156,166 155,165 155,164 154,163 154,162 153,161 153,160 151,158 151,157 150,156 150,155 149,154 149,153 148,152 148,151 147,150 147,149 146,148 146,147 145,146 145,145 144,144 144,143 143,142 143,141 142,140 142,139 141,138 141,137 140,136 140,135 138,133 138,132 137,131 138,130 150,130 151,131 153,131 153,129 154,128 160,128 161,129 161,131 165,131 162,131 161,130 162,129 165,129 166,128 166,127 167,126 167,125 166,124 166,123 165,122 165,121 164,120 165,121 165,122 166,123 166,124 167,125 167,126 166,127 164,125 164,124 163,123 163,122 162,121 162,120 160,118 160,117 160,118 161,119 161,120 163,122 163,123 164,124 164,125 165,126 165,127 166,128 165,129 161,129 160,128 157,128 156,127 156,124 157,123 157,120 158,119 158,115 158,119 157,120 157,123 156,124 155,123 155,119 156,118 156,115 156,118 155,119 155,123 154,124 154,127 152,129 151,129 150,128 140,128 144,128 145,129 144,130 138,130 137,129 137,128 138,127 138,125 139,124 138,125 138,127 137,128 135,126 135,125 136,124 135,125 135,126 134,127 135,126 137,128 137,131 138,132 138,133 137,134 136,134 135,133 135,132 135,134 134,135 134,138 133,139 132,138 132,135 132,138 131,139 131,142 130,143 130,147 129,148 129,151 128,152 128,155 128,152 129,151 129,148 130,147 131,148 131,152 130,153 130,156 129,157 129,160 128,161 127,160 127,157 127,160 126,161 126,163 125,164 124,163 124,162 112,150 117,145 118,145 122,141 123,141 129,135 130,135 129,135 124,140 123,140 118,145 117,145 112,150 112,151 111,152 110,152 111,152 112,151 125,164 124,165 123,165 112,154 124,166 123,167 122,167 123,167 124,168 122,170 123,170 125,168 126,169 126,174 127,175 127,180 128,181 128,186 129,187 129,191 130,192 130,195 130,192 129,191 129,187 128,186 128,181 127,180 127,175 126,174 126,168 124,168 123,167 126,164 127,165 127,166 131,166 132,167 131,168 128,168 128,173 129,174 129,179 130,180 130,185 131,186 131,190 132,191 132,195 133,196 133,198 132,199 131,198 131,197 130,198 129,197 128,197 127,196 126,196 125,195 124,195 123,194 122,194 121,193 120,193 119,192 118,192 116,190 115,190 114,189 113,189 112,188 111,188 109,186 108,186 106,184 105,184 103,182 104,181 105,181 106,180 107,180 110,177 112,177 114,175 115,175 118,172 120,172 120,171 119,172 118,172 117,171 119,169 120,169 119,169 117,171 116,171 114,173 113,173 111,175 112,176 111,177 110,177 109,176 108,176 106,178 105,178 103,180 103,183 102,184 101,183 101,181 100,181 99,180 101,178 102,178 103,177 103,175 101,175 101,176 102,175 103,176 103,177 102,178 100,178 100,179 99,180 97,178 96,178 93,175 92,175 89,172 88,172 84,168 83,168 79,164 78,164 76,162 75,162 74,161 75,160 76,160 77,159 80,159 81,158 84,158 85,157 88,157 89,156 92,156 93,155 96,155 97,154 100,154 101,153 104,153 101,153 100,152 101,151 104,151 105,150 109,150 116,143 117,143 122,138 123,138 128,133 129,133 130,132 129,131 130,130 129,131 126,131 125,132 122,132 121,133 117,133 116,134 113,134 112,135 109,135 108,136 105,136 104,137 102,137 101,138 100,138 99,139 98,139 98,140 97,141 96,141 96,142 95,143 94,143 93,144 92,143 91,143 90,144 89,144 85,148 84,148 82,150 81,150 78,153 77,153 74,156 73,156 73,157 72,158 71,158 70,157 68,157 67,156 65,156 64,155 62,155 61,154 59,154 58,153 59,152 60,152 61,151 62,151 63,150 65,150 66,149 68,149 69,148 71,148 72,147 74,147 75,146 77,146 78,145 80,145 81,144 83,144 84,143 86,143 87,142 89,142 90,141 91,141 92,140 93,140 94,141 93,140 92,140 91,139 92,138 94,138 92,138 91,139 89,139 88,140 86,140 85,141 83,141 82,142 80,142 79,143 77,143 76,144 74,144 73,145 71,145 70,146 68,146 67,147 65,147 64,148 63,148 64,148 65,149 64,150 63,150 62,151 60,151 58,149 60,147 61,147 66,142 67,142 75,134 76,134 78,132 79,133 82,133 83,134 88,134 89,135 93,135 94,136 97,136 94,136 93,135 89,135 88,134 84,134 83,133 79,133 78,132 78,130 79,129 79,127 80,126 80,124 81,123 81,121 82,120 82,118 83,117 84,117 85,118 85,119 89,123 90,123 91,124 91,125 92,126 92,127 93,128 94,128 95,129 95,130 96,131 96,132 97,132 95,130 95,129 96,128 100,132 100,133 101,134 100,135 101,134 102,134 102,133 107,128 107,127 111,123 111,122 109,122 108,121 109,120 113,120 113,114 114,113 114,107 115,106 116,107 116,114 115,115 115,119 115,115 116,114 116,108 117,107 117,99 117,106 116,107 115,106 115,99 114,98 113,98 111,100 110,100 109,101 108,101 106,103 105,103 104,104 103,104 102,105 101,105 100,106 99,106 98,107 97,107 96,108 95,108 94,109 93,109 92,110 91,110 90,111 89,111 88,112 87,112 88,112 89,111 90,111 91,110 92,110 93,109 94,109 95,108 96,108 97,107 98,107 99,106 100,106 101,105 102,105 103,104 104,104 105,103 106,103 107,102 108,102 110,100 111,100 112,99 113,99 114,98 115,99 115,106 114,107 114,113 113,114 113,119 112,120 109,120 108,119 106,119 105,118 101,118 100,117 98,117 97,116 94,116 93,115 91,115 93,115 94,116 93,117 90,117 89,116 88,116 87,115 88,114 89,114 87,114 87,116 89,116 90,117 92,117 93,118 96,118 97,119 100,119 101,120 104,120 105,121 107,121 108,122 110,122 111,123 106,128 106,129 102,133 101,133 96,128 94,128 91,125 91,123 90,123 89,122 88,122 86,120 86,119 85,118 85,117 84,117 83,116 84,115 85,115 85,114 84,113 84,112 86,110 87,110 88,109 89,109 90,108 91,108 92,107 93,107 94,106 95,106 96,105 97,105 98,104 99,104 100,103 101,103 102,102 103,102 104,101 105,101 106,100 105,101 104,101 103,102 102,102 101,103 100,103 99,104 98,104 97,105 96,105 95,106 94,106 93,107 92,107 91,108 90,108 89,109 88,109 87,110 86,110 85,111 83,109 83,104 82,103 82,98 81,97 81,92 80,91 80,86 79,85 79,78 80,77 81,77 83,79 85,79 86,80 87,80 88,81 89,81 91,83 92,83 94,85 95,85 96,86 97,86 98,87 99,87 100,88 101,88 102,89 104,89 105,90 106,90 107,91 108,91 109,92 110,92 111,93 112,93 113,94 114,94 115,95 114,96 113,96 114,96 115,95 114,94 115,93 116,93 115,92 115,93 114,94 113,93 112,93 111,92 112,91 111,92 110,92 109,91 110,90 109,89 108,89 107,88 106,88 105,87 103,87 102,86 101,86 100,85 99,85 98,84 99,85 98,86 97,86 96,85 95,85 94,84 95,83 96,83 95,83 94,82 95,81 97,81 98,82 101,82 102,83 104,83 105,84 108,84 106,84 105,83 106,82 108,82 106,82 105,81 103,81 102,80 99,80 98,79 96,79 95,78 92,78 91,77 89,77 88,76 85,76 88,76 89,77 91,77 92,78 95,78 96,79 98,79 99,80 98,81 95,81 94,80 93,80 94,80 95,81 94,82 95,83 94,84 93,84 91,82 90,82 89,81 90,80 89,81 88,81 87,80 86,80 85,79 84,79 83,78 82,78 81,77 80,77 79,76 78,76 77,77 78,76 79,76 80,77 79,78 79,85 78,86 77,85 77,80 77,85 78,86 78,92 79,93 79,98 80,99 80,104 81,105 81,109 81,105 80,104 80,99 81,98 82,99 82,103 83,104 83,109 84,110 84,111 83,112 82,111 82,112 81,113 79,111 78,111 75,108 74,108 69,103 68,103 64,99 64,97 68,93 68,92 70,90 70,89 71,88 71,87 72,86 72,85 74,83 74,82 75,81 75,80 75,81 73,83 73,84 72,85 72,86 71,87 70,86 70,84 71,83 70,84 70,85 69,86 69,87 67,89 67,90 65,92 65,93 63,95 65,93 65,92 67,90 67,89 70,86 71,87 71,88 69,90 69,91 67,93 67,94 64,97 64,98 63,99 63,102 62,103 62,105 61,106 60,105 60,104 59,103 47,115 46,114 47,115 46,116 46,117 45,118 45,119 47,119 48,120 50,120 51,121 50,122 47,122 46,121 44,121 44,122 43,123 45,121 46,121 47,122 49,122 50,123 51,123 52,124 52,125 40,137 52,125 53,125 54,126 37,143 36,143 36,144 35,145 35,147 37,147 38,148 43,148 44,149 43,150 37,150 36,149 33,149 33,150 31,152 30,151 30,150 31,149 31,148 32,147 32,146 33,145 33,143 34,142 34,140 35,139 36,140 36,141 36,140 37,139 37,138 37,139 36,140 35,139 35,137 36,136 36,135 37,134 37,132 38,131 39,132 39,135 38,136 39,135 39,132 40,131 39,132 38,131 38,129 39,128 39,127 40,126 40,124 41,123 41,122 42,121 42,118 43,117 43,115 44,114 44,112 45,111 45,109 46,108 46,106 47,105 47,103 48,102 48,100 49,99 49,97 50,96 50,94 51,93 51,91 52,90 52,89 53,88 53,86 54,85 54,83 55,82 55,81 56,80 56,79 58,77 58,76 60,74 60,73 62,71 62,70 64,68 64,67 66,65 66,64 69,61 69,59 72,56 73,56 75,54 76,54 79,51 80,51 82,49 83,49 85,47 86,47 87,46 88,46 90,44 91,44 92,43 93,43 95,41 97,41 98,40 99,40 100,39 102,39 104,37 105,37 106,38 107,37 114,37 115,36 119,36 120,35 126,35 127,34 128,35 129,34 131,34 132,35 135,35 136,36 139,36 140,37 143,37 144,38 146,38 147,39 149,39 150,40 152,40 154,42 155,42 157,44 158,44 160,46 161,46 164,49 165,49 170,54 171,54 177,60 176,61 177,60 180,63 198,63 181,63 172,54 171,54 166,49 165,49 162,46 161,46 159,44 158,44 156,42 155,42 153,40 150,40 149,39 147,39 146,38 144,38 143,37 140,37 139,36 136,36 135,35 133,35 132,34 129,34 128,35" stroke="black" stroke-width="1.5" /></svg>